<mxfile host="app.diagrams.net" modified="2021-06-19T09:44:56.127Z" agent="5.0 (Macintosh; Intel Mac OS X 10_15_7) AppleWebKit/537.36 (KHTML, like Gecko) Chrome/90.0.4430.212 Safari/537.36" etag="prmYo6l-WdL7_NwcZXmM" version="14.7.6" type="github" pages="2">
  <diagram id="WXttNHrkhx1nnGVsF4Nc" name="打包线程池设计">
    <mxGraphModel dx="1426" dy="946" grid="1" gridSize="10" guides="1" tooltips="1" connect="1" arrows="1" fold="1" page="1" pageScale="1" pageWidth="827" pageHeight="1169" math="0" shadow="0">
      <root>
        <mxCell id="0" />
        <mxCell id="1" parent="0" />
        <mxCell id="1fOs09JKboJRAiU0__4v-41" value="" style="shape=corner;whiteSpace=wrap;html=1;shadow=0;sketch=0;fillColor=#ffffff;gradientColor=none;dx=30;dy=30;" parent="1" vertex="1">
          <mxGeometry x="60" y="400" width="80" height="80" as="geometry" />
        </mxCell>
        <mxCell id="1fOs09JKboJRAiU0__4v-3" value="" style="rounded=1;whiteSpace=wrap;html=1;fillColor=#d5e8d4;strokeColor=#82b366;" parent="1" vertex="1">
          <mxGeometry x="139" y="360" width="550" height="100" as="geometry" />
        </mxCell>
        <mxCell id="1fOs09JKboJRAiU0__4v-8" value="RBlockingQueue" style="text;html=1;align=center;verticalAlign=middle;resizable=0;points=[];autosize=1;" parent="1" vertex="1">
          <mxGeometry x="464" y="400" width="110" height="20" as="geometry" />
        </mxCell>
        <mxCell id="1fOs09JKboJRAiU0__4v-10" value="Task" style="rounded=1;whiteSpace=wrap;html=1;" parent="1" vertex="1">
          <mxGeometry x="180" y="375" width="40" height="70" as="geometry" />
        </mxCell>
        <mxCell id="1fOs09JKboJRAiU0__4v-16" value="" style="edgeStyle=orthogonalEdgeStyle;rounded=0;orthogonalLoop=1;jettySize=auto;html=1;" parent="1" source="1fOs09JKboJRAiU0__4v-11" target="1fOs09JKboJRAiU0__4v-10" edge="1">
          <mxGeometry relative="1" as="geometry" />
        </mxCell>
        <mxCell id="1fOs09JKboJRAiU0__4v-11" value="Task" style="rounded=1;whiteSpace=wrap;html=1;" parent="1" vertex="1">
          <mxGeometry x="250" y="375" width="40" height="70" as="geometry" />
        </mxCell>
        <mxCell id="1fOs09JKboJRAiU0__4v-17" value="" style="edgeStyle=orthogonalEdgeStyle;rounded=0;orthogonalLoop=1;jettySize=auto;html=1;" parent="1" source="1fOs09JKboJRAiU0__4v-12" target="1fOs09JKboJRAiU0__4v-11" edge="1">
          <mxGeometry relative="1" as="geometry" />
        </mxCell>
        <mxCell id="1fOs09JKboJRAiU0__4v-12" value="Task" style="rounded=1;whiteSpace=wrap;html=1;" parent="1" vertex="1">
          <mxGeometry x="320" y="375" width="40" height="70" as="geometry" />
        </mxCell>
        <mxCell id="1fOs09JKboJRAiU0__4v-18" value="" style="edgeStyle=orthogonalEdgeStyle;rounded=0;orthogonalLoop=1;jettySize=auto;html=1;" parent="1" source="1fOs09JKboJRAiU0__4v-13" target="1fOs09JKboJRAiU0__4v-12" edge="1">
          <mxGeometry relative="1" as="geometry" />
        </mxCell>
        <mxCell id="1fOs09JKboJRAiU0__4v-13" value="Task" style="rounded=1;whiteSpace=wrap;html=1;" parent="1" vertex="1">
          <mxGeometry x="393.5" y="375" width="40" height="70" as="geometry" />
        </mxCell>
        <mxCell id="1fOs09JKboJRAiU0__4v-33" value="" style="rounded=1;whiteSpace=wrap;html=1;shadow=0;fillColor=#dae8fc;strokeColor=#6c8ebf;" parent="1" vertex="1">
          <mxGeometry x="320" y="540" width="120" height="230" as="geometry" />
        </mxCell>
        <mxCell id="1fOs09JKboJRAiU0__4v-38" value="" style="html=1;shadow=0;dashed=0;align=center;verticalAlign=middle;shape=mxgraph.arrows2.bendArrow;dy=15;dx=38;notch=0;arrowHead=55;rounded=1;sketch=0;fillColor=#ffffff;gradientColor=none;flipV=1;flipH=0;" parent="1" vertex="1">
          <mxGeometry x="60" y="400" width="260" height="280" as="geometry" />
        </mxCell>
        <mxCell id="oTEjtu3qGeO5vsxfW3SU-1" value="Thread" style="rounded=1;whiteSpace=wrap;html=1;fillColor=#fff2cc;strokeColor=#d6b656;" parent="1" vertex="1">
          <mxGeometry x="345" y="610" width="70" height="25" as="geometry" />
        </mxCell>
        <mxCell id="oTEjtu3qGeO5vsxfW3SU-2" value="Thread" style="rounded=1;whiteSpace=wrap;html=1;fillColor=#fff2cc;strokeColor=#d6b656;" parent="1" vertex="1">
          <mxGeometry x="344" y="655" width="70" height="25" as="geometry" />
        </mxCell>
        <mxCell id="oTEjtu3qGeO5vsxfW3SU-3" value="Thread" style="rounded=1;whiteSpace=wrap;html=1;fillColor=#fff2cc;strokeColor=#d6b656;" parent="1" vertex="1">
          <mxGeometry x="345" y="700" width="70" height="25" as="geometry" />
        </mxCell>
        <mxCell id="oTEjtu3qGeO5vsxfW3SU-9" value="Success" style="ellipse;whiteSpace=wrap;html=1;rounded=1;shadow=0;strokeColor=#9673a6;fillColor=#e1d5e7;" parent="1" vertex="1">
          <mxGeometry x="560" y="540" width="60" height="50" as="geometry" />
        </mxCell>
        <mxCell id="oTEjtu3qGeO5vsxfW3SU-11" value="Fail" style="ellipse;whiteSpace=wrap;html=1;rounded=1;shadow=0;strokeColor=#b85450;fillColor=#f8cecc;" parent="1" vertex="1">
          <mxGeometry x="560" y="610" width="60" height="50" as="geometry" />
        </mxCell>
        <mxCell id="oTEjtu3qGeO5vsxfW3SU-12" value="TimeOut" style="ellipse;whiteSpace=wrap;html=1;rounded=1;shadow=0;strokeColor=#b85450;fillColor=#f8cecc;" parent="1" vertex="1">
          <mxGeometry x="560" y="680" width="60" height="50" as="geometry" />
        </mxCell>
        <mxCell id="oTEjtu3qGeO5vsxfW3SU-14" value="" style="endArrow=classic;html=1;entryX=0;entryY=0.5;entryDx=0;entryDy=0;exitX=1;exitY=0.5;exitDx=0;exitDy=0;" parent="1" source="1fOs09JKboJRAiU0__4v-33" target="oTEjtu3qGeO5vsxfW3SU-9" edge="1">
          <mxGeometry width="50" height="50" relative="1" as="geometry">
            <mxPoint x="390" y="620" as="sourcePoint" />
            <mxPoint x="440" y="570" as="targetPoint" />
          </mxGeometry>
        </mxCell>
        <mxCell id="oTEjtu3qGeO5vsxfW3SU-15" value="" style="endArrow=classic;html=1;entryX=0;entryY=0.5;entryDx=0;entryDy=0;exitX=1;exitY=0.5;exitDx=0;exitDy=0;" parent="1" source="1fOs09JKboJRAiU0__4v-33" target="oTEjtu3qGeO5vsxfW3SU-11" edge="1">
          <mxGeometry width="50" height="50" relative="1" as="geometry">
            <mxPoint x="450" y="665" as="sourcePoint" />
            <mxPoint x="570" y="575" as="targetPoint" />
          </mxGeometry>
        </mxCell>
        <mxCell id="oTEjtu3qGeO5vsxfW3SU-16" value="" style="endArrow=classic;html=1;entryX=0;entryY=0.5;entryDx=0;entryDy=0;exitX=1;exitY=0.5;exitDx=0;exitDy=0;" parent="1" source="1fOs09JKboJRAiU0__4v-33" target="oTEjtu3qGeO5vsxfW3SU-12" edge="1">
          <mxGeometry width="50" height="50" relative="1" as="geometry">
            <mxPoint x="450" y="665" as="sourcePoint" />
            <mxPoint x="570" y="645" as="targetPoint" />
          </mxGeometry>
        </mxCell>
        <mxCell id="oTEjtu3qGeO5vsxfW3SU-17" value="Queue" style="ellipse;whiteSpace=wrap;html=1;rounded=1;shadow=0;fillColor=#e1d5e7;strokeColor=#9673a6;" parent="1" vertex="1">
          <mxGeometry x="580" y="385" width="60" height="50" as="geometry" />
        </mxCell>
        <mxCell id="oTEjtu3qGeO5vsxfW3SU-18" value="Packaging" style="ellipse;whiteSpace=wrap;html=1;rounded=1;shadow=0;strokeColor=#9673a6;fillColor=#e1d5e7;" parent="1" vertex="1">
          <mxGeometry x="350" y="550" width="60" height="50" as="geometry" />
        </mxCell>
        <mxCell id="-lydWnswOdqcU-i7Ikff-1" value="InFail" style="ellipse;whiteSpace=wrap;html=1;rounded=1;shadow=0;strokeColor=#b85450;fillColor=#f8cecc;" parent="1" vertex="1">
          <mxGeometry x="710" y="385" width="60" height="50" as="geometry" />
        </mxCell>
        <mxCell id="-lydWnswOdqcU-i7Ikff-2" value="打包线程池设计" style="text;html=1;align=center;verticalAlign=middle;resizable=0;points=[];autosize=1;fontSize=18;" parent="1" vertex="1">
          <mxGeometry x="324" y="270" width="140" height="30" as="geometry" />
        </mxCell>
      </root>
    </mxGraphModel>
  </diagram>
  <diagram id="mF2noojtXpy6e29aM6rl" name="推送限流器设计">
    <mxGraphModel dx="1426" dy="946" grid="1" gridSize="10" guides="1" tooltips="1" connect="1" arrows="1" fold="1" page="1" pageScale="1" pageWidth="827" pageHeight="1169" math="0" shadow="0">
      <root>
        <mxCell id="noBW3BPJyGOrNGgZPATn-0" />
        <mxCell id="noBW3BPJyGOrNGgZPATn-1" parent="noBW3BPJyGOrNGgZPATn-0" />
        <mxCell id="noBW3BPJyGOrNGgZPATn-2" value="极光推送" style="rounded=1;whiteSpace=wrap;html=1;" vertex="1" parent="noBW3BPJyGOrNGgZPATn-1">
          <mxGeometry x="90" y="170" width="110" height="40" as="geometry" />
        </mxCell>
        <mxCell id="noBW3BPJyGOrNGgZPATn-5" value="小米（手机厂商）" style="rounded=1;whiteSpace=wrap;html=1;" vertex="1" parent="noBW3BPJyGOrNGgZPATn-1">
          <mxGeometry x="90" y="230" width="110" height="40" as="geometry" />
        </mxCell>
        <mxCell id="noBW3BPJyGOrNGgZPATn-6" value="谷歌推送" style="rounded=1;whiteSpace=wrap;html=1;" vertex="1" parent="noBW3BPJyGOrNGgZPATn-1">
          <mxGeometry x="90" y="290" width="110" height="40" as="geometry" />
        </mxCell>
        <mxCell id="noBW3BPJyGOrNGgZPATn-9" value="推送平台" style="text;html=1;align=center;verticalAlign=middle;resizable=0;points=[];autosize=1;strokeColor=none;" vertex="1" parent="noBW3BPJyGOrNGgZPATn-1">
          <mxGeometry x="115" y="130" width="60" height="20" as="geometry" />
        </mxCell>
        <mxCell id="noBW3BPJyGOrNGgZPATn-10" value="推送注册器" style="rounded=1;whiteSpace=wrap;html=1;" vertex="1" parent="noBW3BPJyGOrNGgZPATn-1">
          <mxGeometry x="320" y="170" width="120" height="60" as="geometry" />
        </mxCell>
        <mxCell id="noBW3BPJyGOrNGgZPATn-11" value="IM注册中心" style="rounded=1;whiteSpace=wrap;html=1;" vertex="1" parent="noBW3BPJyGOrNGgZPATn-1">
          <mxGeometry x="320" y="270" width="120" height="60" as="geometry" />
        </mxCell>
        <mxCell id="noBW3BPJyGOrNGgZPATn-12" value="极光" style="rounded=1;whiteSpace=wrap;html=1;" vertex="1" parent="noBW3BPJyGOrNGgZPATn-1">
          <mxGeometry x="540" y="200" width="110" height="40" as="geometry" />
        </mxCell>
        <mxCell id="noBW3BPJyGOrNGgZPATn-13" value="网易云信" style="rounded=1;whiteSpace=wrap;html=1;" vertex="1" parent="noBW3BPJyGOrNGgZPATn-1">
          <mxGeometry x="540" y="270" width="110" height="40" as="geometry" />
        </mxCell>
        <mxCell id="noBW3BPJyGOrNGgZPATn-14" value="iM" style="text;html=1;align=center;verticalAlign=middle;resizable=0;points=[];autosize=1;strokeColor=none;" vertex="1" parent="noBW3BPJyGOrNGgZPATn-1">
          <mxGeometry x="580" y="150" width="30" height="20" as="geometry" />
        </mxCell>
        <mxCell id="noBW3BPJyGOrNGgZPATn-16" value="redis" style="text;html=1;align=center;verticalAlign=middle;resizable=0;points=[];autosize=1;strokeColor=none;" vertex="1" parent="noBW3BPJyGOrNGgZPATn-1">
          <mxGeometry x="370" y="400" width="40" height="20" as="geometry" />
        </mxCell>
        <mxCell id="noBW3BPJyGOrNGgZPATn-17" value="hips:push:paltform:roungCloud" style="text;html=1;align=center;verticalAlign=middle;resizable=0;points=[];autosize=1;strokeColor=none;" vertex="1" parent="noBW3BPJyGOrNGgZPATn-1">
          <mxGeometry x="180" y="460" width="180" height="20" as="geometry" />
        </mxCell>
        <mxCell id="noBW3BPJyGOrNGgZPATn-18" value="hips:push:paltform:google" style="text;html=1;align=center;verticalAlign=middle;resizable=0;points=[];autosize=1;strokeColor=none;" vertex="1" parent="noBW3BPJyGOrNGgZPATn-1">
          <mxGeometry x="195" y="510" width="150" height="20" as="geometry" />
        </mxCell>
        <mxCell id="noBW3BPJyGOrNGgZPATn-19" value="{&quot;ts&quot;:&quot;1624095116731&quot;,&quot;tokens&quot;:&quot;200&quot;}" style="text;html=1;align=center;verticalAlign=middle;resizable=0;points=[];autosize=1;strokeColor=none;" vertex="1" parent="noBW3BPJyGOrNGgZPATn-1">
          <mxGeometry x="410" y="460" width="220" height="20" as="geometry" />
        </mxCell>
        <mxCell id="noBW3BPJyGOrNGgZPATn-20" value="{&quot;ts&quot;:&quot;1624095116731&quot;,&quot;tokens&quot;:&quot;200&quot;}" style="text;html=1;align=center;verticalAlign=middle;resizable=0;points=[];autosize=1;strokeColor=none;" vertex="1" parent="noBW3BPJyGOrNGgZPATn-1">
          <mxGeometry x="410" y="510" width="220" height="20" as="geometry" />
        </mxCell>
        <mxCell id="noBW3BPJyGOrNGgZPATn-22" value="公司系统10,000人，需要同时发起10次推送。首先进行消息分组，以平台纬度拆分任务，&lt;br&gt;每个任务包含任务所属平台，推送人的userIds集合，发送消息的MSGID，将拆好的任务提交给推送线程池" style="text;html=1;align=center;verticalAlign=middle;resizable=0;points=[];autosize=1;strokeColor=none;" vertex="1" parent="noBW3BPJyGOrNGgZPATn-1">
          <mxGeometry x="120" y="625" width="570" height="30" as="geometry" />
        </mxCell>
        <mxCell id="noBW3BPJyGOrNGgZPATn-23" value="demo：" style="text;html=1;align=center;verticalAlign=middle;resizable=0;points=[];autosize=1;strokeColor=none;" vertex="1" parent="noBW3BPJyGOrNGgZPATn-1">
          <mxGeometry x="300" y="590" width="60" height="20" as="geometry" />
        </mxCell>
      </root>
    </mxGraphModel>
  </diagram>
</mxfile>
